<?xml version="1.0" standalone="no"?>
<!DOCTYPE svg PUBLIC "-//W3C//DTD SVG 20010904//EN"
 "http://www.w3.org/TR/2001/REC-SVG-20010904/DTD/svg10.dtd">
<svg version="1.0" xmlns="http://www.w3.org/2000/svg"
 width="700.000000pt" height="700.000000pt" viewBox="0 0 700.000000 700.000000"
 preserveAspectRatio="xMidYMid meet">
<metadata>
Created by potrace 1.11, written by Peter Selinger 2001-2013
</metadata>
<g transform="translate(0.000000,700.000000) scale(0.100000,-0.100000)"
fill="#000000" stroke="none">
<path d="M959 6996 c-2 -2 -29 -7 -59 -11 -122 -15 -298 -86 -430 -174 -69
-45 -215 -188 -269 -264 -52 -71 -122 -211 -149 -297 -51 -160 -51 -145 -52
-1352 l0 -1128 804 0 c634 0 805 -3 808 -12 2 -7 4 -309 4 -670 -1 -362 1
-659 4 -659 3 -1 123 -3 267 -4 230 -1 262 1 265 14 3 14 2 2038 -1 2112 l-1
26 -520 -1 c-287 -1 -528 2 -537 5 -15 5 -17 72 -17 807 l-1 802 40 1 c46 0
2535 0 2608 -1 l47 0 0 -2420 c0 -1929 3 -2420 13 -2421 14 -1 485 -1 509 0
15 1 16 89 17 1203 0 662 0 1206 1 1210 0 4 242 9 538 10 l537 3 0 392 c0 215
2 394 5 397 3 2 246 -236 539 -530 l534 -534 -536 -535 c-294 -294 -537 -535
-539 -535 -2 0 -3 180 -3 400 l0 400 -266 0 c-205 0 -268 -3 -271 -12 -2 -7
-3 -552 -3 -1210 l2 -1198 -51 0 c-57 -1 -1380 -1 -1493 0 l-73 0 0 2419 c0
1926 -3 2420 -12 2423 -11 3 -1581 2 -1598 -1 -8 -1 -6 -514 2 -526 4 -6 193
-10 537 -9 l531 0 1 -30 c0 -36 0 -3151 -1 -3181 0 -20 -6 -20 -799 -20 -440
0 -803 3 -807 8 -4 4 -8 305 -8 670 l-1 662 -538 3 -537 2 1 -1122 c0 -651 4
-1148 10 -1183 24 -155 88 -320 174 -450 52 -77 164 -195 243 -255 130 -98
336 -186 486 -208 68 -9 5106 -9 5175 1 29 4 57 9 61 12 4 2 21 7 38 10 18 3
58 15 90 27 31 12 59 23 62 23 3 0 41 20 85 43 295 155 499 436 560 772 21
114 21 5080 0 5190 -27 146 -43 195 -96 303 -59 118 -113 193 -213 292 -164
163 -342 256 -571 299 -70 13 -403 15 -2611 16 -1392 0 -2533 -2 -2535 -4z"/>
<path d="M130 3670 c0 -14 7 -20 23 -20 19 0 28 -13 55 -75 31 -71 31 -76 16
-100 -18 -28 -11 -64 14 -66 9 -1 72 -2 140 -3 92 -1 122 2 122 12 0 6 1 15 3
19 1 4 -55 7 -125 6 -120 0 -126 1 -115 18 9 15 25 19 77 20 36 1 74 1 86 0
23 -2 39 14 82 87 51 84 55 82 -128 82 -149 0 -160 1 -170 20 -8 14 -21 20
-45 20 -28 0 -35 -4 -35 -20z"/>
<path d="M238 3383 c-33 -9 -32 -57 2 -68 42 -13 72 31 41 59 -10 9 -19 15
-22 15 -2 -1 -11 -3 -21 -6z"/>
<path d="M431 3377 c-29 -29 7 -75 49 -62 21 7 28 49 10 60 -20 12 -48 13 -59
2z"/>
</g>
</svg>
